<svg xmlns="http://www.w3.org/2000/svg" viewBox="0 0 560 300" width="560" height="300"><style>
text{font-family:'Hiragino Sans','Hiragino Kaku Gothic ProN','Noto Sans JP','Yu Gothic',Meiryo,sans-serif;font-size:13px;fill:#1f2328}
.s{font-size:11.5px} .m{fill:#5b636d} .b{font-weight:700} .a{fill:#0f6e6a} .a2{fill:#c0612b} .a3{fill:#3b6fb6}
.ln{stroke:#1f2328;stroke-width:1.5;fill:none} .thin{stroke:#5b636d;stroke-width:1;fill:none}
.grid{stroke:#e3e3dc;stroke-width:1} .dash{stroke-dasharray:5 4} .dot{stroke-dasharray:2 3}
.c1{stroke:#0f6e6a;stroke-width:2.5;fill:none} .c2{stroke:#c0612b;stroke-width:2.5;fill:none} .c3{stroke:#3b6fb6;stroke-width:2.5;fill:none}
.eq{stroke:#1f2328;stroke-width:1.5;fill:#fff}
</style><defs>
<marker id="ar" viewBox="0 0 10 10" refX="9" refY="5" markerWidth="7" markerHeight="7" orient="auto-start-reverse"><path d="M0,0 L10,5 L0,10 z" fill="#1f2328"/></marker>
<marker id="ara" viewBox="0 0 10 10" refX="9" refY="5" markerWidth="7" markerHeight="7" orient="auto-start-reverse"><path d="M0,0 L10,5 L0,10 z" fill="#0f6e6a"/></marker>
<marker id="ar2" viewBox="0 0 10 10" refX="9" refY="5" markerWidth="7" markerHeight="7" orient="auto-start-reverse"><path d="M0,0 L10,5 L0,10 z" fill="#c0612b"/></marker>
<marker id="ar3" viewBox="0 0 10 10" refX="9" refY="5" markerWidth="7" markerHeight="7" orient="auto-start-reverse"><path d="M0,0 L10,5 L0,10 z" fill="#3b6fb6"/></marker>
<marker id="arm" viewBox="0 0 10 10" refX="9" refY="5" markerWidth="6" markerHeight="6" orient="auto-start-reverse"><path d="M0,0 L10,5 L0,10 z" fill="#5b636d"/></marker>
</defs><rect width="560" height="300" fill="#fff"/><line x1="80.0" y1="30.0" x2="80.0" y2="230.0" class="grid"/><line x1="80.0" y1="230.0" x2="80.0" y2="234.0" class="thin"/><text x="80.0" y="248.0" text-anchor="middle" class="s m">0</text><line x1="153.3" y1="30.0" x2="153.3" y2="230.0" class="grid"/><line x1="153.3" y1="230.0" x2="153.3" y2="234.0" class="thin"/><text x="153.3" y="248.0" text-anchor="middle" class="s m">2</text><line x1="226.7" y1="30.0" x2="226.7" y2="230.0" class="grid"/><line x1="226.7" y1="230.0" x2="226.7" y2="234.0" class="thin"/><text x="226.7" y="248.0" text-anchor="middle" class="s m">4</text><line x1="300.0" y1="30.0" x2="300.0" y2="230.0" class="grid"/><line x1="300.0" y1="230.0" x2="300.0" y2="234.0" class="thin"/><text x="300.0" y="248.0" text-anchor="middle" class="s m">6</text><line x1="373.3" y1="30.0" x2="373.3" y2="230.0" class="grid"/><line x1="373.3" y1="230.0" x2="373.3" y2="234.0" class="thin"/><text x="373.3" y="248.0" text-anchor="middle" class="s m">8</text><line x1="446.7" y1="30.0" x2="446.7" y2="230.0" class="grid"/><line x1="446.7" y1="230.0" x2="446.7" y2="234.0" class="thin"/><text x="446.7" y="248.0" text-anchor="middle" class="s m">10</text><line x1="520.0" y1="30.0" x2="520.0" y2="230.0" class="grid"/><line x1="520.0" y1="230.0" x2="520.0" y2="234.0" class="thin"/><text x="520.0" y="248.0" text-anchor="middle" class="s m">12</text><line x1="80.0" y1="230.0" x2="520.0" y2="230.0" class="grid"/><line x1="76.0" y1="230.0" x2="80.0" y2="230.0" class="thin"/><text x="72.0" y="234.0" text-anchor="end" class="s m">1.0</text><line x1="80.0" y1="201.4" x2="520.0" y2="201.4" class="grid"/><line x1="76.0" y1="201.4" x2="80.0" y2="201.4" class="thin"/><text x="72.0" y="205.4" text-anchor="end" class="s m">1.2</text><line x1="80.0" y1="172.9" x2="520.0" y2="172.9" class="grid"/><line x1="76.0" y1="172.9" x2="80.0" y2="172.9" class="thin"/><text x="72.0" y="176.9" text-anchor="end" class="s m">1.4</text><line x1="80.0" y1="144.3" x2="520.0" y2="144.3" class="grid"/><line x1="76.0" y1="144.3" x2="80.0" y2="144.3" class="thin"/><text x="72.0" y="148.3" text-anchor="end" class="s m">1.6</text><line x1="80.0" y1="115.7" x2="520.0" y2="115.7" class="grid"/><line x1="76.0" y1="115.7" x2="80.0" y2="115.7" class="thin"/><text x="72.0" y="119.7" text-anchor="end" class="s m">1.8</text><line x1="80.0" y1="87.1" x2="520.0" y2="87.1" class="grid"/><line x1="76.0" y1="87.1" x2="80.0" y2="87.1" class="thin"/><text x="72.0" y="91.1" text-anchor="end" class="s m">2.0</text><line x1="80.0" y1="58.6" x2="520.0" y2="58.6" class="grid"/><line x1="76.0" y1="58.6" x2="80.0" y2="58.6" class="thin"/><text x="72.0" y="62.6" text-anchor="end" class="s m">2.2</text><line x1="80.0" y1="30.0" x2="520.0" y2="30.0" class="grid"/><line x1="76.0" y1="30.0" x2="80.0" y2="30.0" class="thin"/><text x="72.0" y="34.0" text-anchor="end" class="s m">2.4</text><rect x="80.0" y="30.0" width="440.0" height="200.0" rx="0" fill="none" stroke="#5b636d" stroke-width="1"/><text x="300.0" y="266.0" text-anchor="middle">乾き排ガス中の O₂ 濃度 [%]</text><text x="36.0" y="130.0" text-anchor="middle" transform="rotate(-90 36.0 130.0)">空気比 m</text><path d="M80.0,230.0 L82.2,229.6 L84.4,229.2 L86.6,228.8 L88.8,228.3 L91.0,227.9 L93.2,227.5 L95.4,227.1 L97.6,226.7 L99.8,226.2 L102.0,225.8 L104.2,225.4 L106.4,224.9 L108.6,224.5 L110.8,224.0 L113.0,223.6 L115.2,223.2 L117.4,222.7 L119.6,222.3 L121.8,221.8 L124.0,221.3 L126.2,220.9 L128.4,220.4 L130.6,220.0 L132.8,219.5 L135.0,219.0 L137.2,218.5 L139.4,218.1 L141.6,217.6 L143.8,217.1 L146.0,216.6 L148.2,216.1 L150.4,215.6 L152.6,215.1 L154.8,214.6 L157.0,214.1 L159.2,213.6 L161.4,213.1 L163.6,212.6 L165.8,212.1 L168.0,211.6 L170.2,211.0 L172.4,210.5 L174.6,210.0 L176.8,209.5 L179.0,208.9 L181.2,208.4 L183.4,207.8 L185.6,207.3 L187.8,206.7 L190.0,206.2 L192.2,205.6 L194.4,205.1 L196.6,204.5 L198.8,203.9 L201.0,203.4 L203.2,202.8 L205.4,202.2 L207.6,201.6 L209.8,201.0 L212.0,200.4 L214.2,199.8 L216.4,199.2 L218.6,198.6 L220.8,198.0 L223.0,197.4 L225.2,196.8 L227.4,196.2 L229.6,195.6 L231.8,194.9 L234.0,194.3 L236.2,193.6 L238.4,193.0 L240.6,192.4 L242.8,191.7 L245.0,191.0 L247.2,190.4 L249.4,189.7 L251.6,189.0 L253.8,188.4 L256.0,187.7 L258.2,187.0 L260.4,186.3 L262.6,185.6 L264.8,184.9 L267.0,184.2 L269.2,183.5 L271.4,182.7 L273.6,182.0 L275.8,181.3 L278.0,180.5 L280.2,179.8 L282.4,179.1 L284.6,178.3 L286.8,177.5 L289.0,176.8 L291.2,176.0 L293.4,175.2 L295.6,174.4 L297.8,173.7 L300.0,172.9 L302.2,172.1 L304.4,171.2 L306.6,170.4 L308.8,169.6 L311.0,168.8 L313.2,167.9 L315.4,167.1 L317.6,166.2 L319.8,165.4 L322.0,164.5 L324.2,163.7 L326.4,162.8 L328.6,161.9 L330.8,161.0 L333.0,160.1 L335.2,159.2 L337.4,158.3 L339.6,157.3 L341.8,156.4 L344.0,155.5 L346.2,154.5 L348.4,153.6 L350.6,152.6 L352.8,151.6 L355.0,150.6 L357.2,149.6 L359.4,148.6 L361.6,147.6 L363.8,146.6 L366.0,145.6 L368.2,144.5 L370.4,143.5 L372.6,142.4 L374.8,141.4 L377.0,140.3 L379.2,139.2 L381.4,138.1 L383.6,137.0 L385.8,135.9 L388.0,134.8 L390.2,133.6 L392.4,132.5 L394.6,131.3 L396.8,130.1 L399.0,129.0 L401.2,127.8 L403.4,126.6 L405.6,125.3 L407.8,124.1 L410.0,122.9 L412.2,121.6 L414.4,120.3 L416.6,119.1 L418.8,117.8 L421.0,116.4 L423.2,115.1 L425.4,113.8 L427.6,112.4 L429.8,111.1 L432.0,109.7 L434.2,108.3 L436.4,106.9 L438.6,105.5 L440.8,104.0 L443.0,102.6 L445.2,101.1 L447.4,99.6 L449.6,98.1 L451.8,96.6 L454.0,95.1 L456.2,93.5 L458.4,92.0 L460.6,90.4 L462.8,88.8 L465.0,87.1 L467.2,85.5 L469.4,83.8 L471.6,82.2 L473.8,80.5 L476.0,78.7 L478.2,77.0 L480.4,75.2 L482.6,73.5 L484.8,71.7 L487.0,69.8 L489.2,68.0 L491.4,66.1 L493.6,64.2 L495.8,62.3 L498.0,60.4 L500.2,58.4 L502.4,56.4 L504.6,54.4 L506.8,52.3 L509.0,50.3 L511.2,48.2 L513.4,46.1 L515.6,43.9 L517.8,41.7 L520.0,39.5" class="c1"/><line x1="219.3" y1="198.4" x2="219.3" y2="230.0" class="thin dash"/><line x1="80.0" y1="198.4" x2="219.3" y2="198.4" class="thin dash"/><circle cx="219.3" cy="198.4" r="5.0" fill="#c0612b" stroke="#fff" stroke-width="1.5"/><text x="229.3" y="216.4" class="s a2">例題：O₂ 3.8% → m ≈ 1.22</text><text x="355.0" y="58.6" class="b a">m ≈ 21 / (21 − O₂)</text></svg>
