<svg xmlns="http://www.w3.org/2000/svg" viewBox="0 0 660 330" width="660" height="330"><style>
text{font-family:'Hiragino Sans','Hiragino Kaku Gothic ProN','Noto Sans JP','Yu Gothic',Meiryo,sans-serif;font-size:13px;fill:#1f2328}
.s{font-size:11.5px} .m{fill:#5b636d} .b{font-weight:700} .a{fill:#0f6e6a} .a2{fill:#c0612b} .a3{fill:#3b6fb6}
.ln{stroke:#1f2328;stroke-width:1.5;fill:none} .thin{stroke:#5b636d;stroke-width:1;fill:none}
.grid{stroke:#e3e3dc;stroke-width:1} .dash{stroke-dasharray:5 4} .dot{stroke-dasharray:2 3}
.c1{stroke:#0f6e6a;stroke-width:2.5;fill:none} .c2{stroke:#c0612b;stroke-width:2.5;fill:none} .c3{stroke:#3b6fb6;stroke-width:2.5;fill:none}
.eq{stroke:#1f2328;stroke-width:1.5;fill:#fff}
</style><defs>
<marker id="ar" viewBox="0 0 10 10" refX="9" refY="5" markerWidth="7" markerHeight="7" orient="auto-start-reverse"><path d="M0,0 L10,5 L0,10 z" fill="#1f2328"/></marker>
<marker id="ara" viewBox="0 0 10 10" refX="9" refY="5" markerWidth="7" markerHeight="7" orient="auto-start-reverse"><path d="M0,0 L10,5 L0,10 z" fill="#0f6e6a"/></marker>
<marker id="ar2" viewBox="0 0 10 10" refX="9" refY="5" markerWidth="7" markerHeight="7" orient="auto-start-reverse"><path d="M0,0 L10,5 L0,10 z" fill="#c0612b"/></marker>
<marker id="ar3" viewBox="0 0 10 10" refX="9" refY="5" markerWidth="7" markerHeight="7" orient="auto-start-reverse"><path d="M0,0 L10,5 L0,10 z" fill="#3b6fb6"/></marker>
<marker id="arm" viewBox="0 0 10 10" refX="9" refY="5" markerWidth="6" markerHeight="6" orient="auto-start-reverse"><path d="M0,0 L10,5 L0,10 z" fill="#5b636d"/></marker>
</defs><rect width="660" height="330" fill="#fff"/><rect x="60.0" y="60.0" width="140.0" height="150.0" rx="14" fill="#e4f2f0" stroke="#1f2328" stroke-width="2"/><line x1="130.0" y1="35.0" x2="130.0" y2="170.0" class="ln" style="stroke-width:2.5"/><path d="M105,170 L155,170" class="ln" style="stroke-width:4"/><line x1="20.0" y1="90.0" x2="58.0" y2="90.0" stroke="#1f2328" stroke-width="2" marker-end="url(#ar)"/><line x1="202.0" y1="180.0" x2="250.0" y2="180.0" stroke="#1f2328" stroke-width="2" marker-end="url(#ar)"/><text x="130.0" y="240.0" text-anchor="middle" class="b">CSTR（連続槽型）</text><text x="130.0" y="258.0" text-anchor="middle" class="s m">中はどこでも出口と同じ濃度</text><rect x="330.0" y="95.0" width="280.0" height="50.0" rx="24" fill="#fff" stroke="#1f2328" stroke-width="2"/><rect x="340.0" y="98" width="19.3" height="44" fill="#0f6e6a" opacity="0.85"/><rect x="359.3" y="98" width="19.3" height="44" fill="#0f6e6a" opacity="0.72"/><rect x="378.6" y="98" width="19.3" height="44" fill="#0f6e6a" opacity="0.62"/><rect x="397.9" y="98" width="19.3" height="44" fill="#0f6e6a" opacity="0.53"/><rect x="417.2" y="98" width="19.3" height="44" fill="#0f6e6a" opacity="0.45"/><rect x="436.5" y="98" width="19.3" height="44" fill="#0f6e6a" opacity="0.38"/><rect x="455.8" y="98" width="19.3" height="44" fill="#0f6e6a" opacity="0.33"/><rect x="475.1" y="98" width="19.3" height="44" fill="#0f6e6a" opacity="0.28"/><rect x="494.4" y="98" width="19.3" height="44" fill="#0f6e6a" opacity="0.24"/><rect x="513.7" y="98" width="19.3" height="44" fill="#0f6e6a" opacity="0.20"/><rect x="533.0" y="98" width="19.3" height="44" fill="#0f6e6a" opacity="0.17"/><rect x="552.3" y="98" width="19.3" height="44" fill="#0f6e6a" opacity="0.15"/><rect x="571.6" y="98" width="19.3" height="44" fill="#0f6e6a" opacity="0.12"/><rect x="590.9" y="98" width="19.3" height="44" fill="#0f6e6a" opacity="0.11"/><rect x="330.0" y="95.0" width="280.0" height="50.0" rx="24" fill="none" stroke="#1f2328" stroke-width="2"/><line x1="290.0" y1="120.0" x2="328.0" y2="120.0" stroke="#1f2328" stroke-width="2" marker-end="url(#ar)"/><line x1="612.0" y1="120.0" x2="650.0" y2="120.0" stroke="#1f2328" stroke-width="2" marker-end="url(#ar)"/><text x="470.0" y="240.0" text-anchor="middle" class="b">PFR（管型、押し出し流れ）</text><text x="470.0" y="258.0" text-anchor="middle" class="s m">入口から出口へ濃度がだんだん下がる</text><text x="470.0" y="40.0" text-anchor="middle" class="s m">色の濃さ＝原料 A の濃度</text><rect x="63" y="63" width="134" height="144" rx="12" fill="#0f6e6a" opacity="0.15"/><text x="330.0" y="300.0" text-anchor="middle" class="s b a2">例題（1次反応、反応率90%）：CSTR 9.0 m³、PFR 2.3 m³</text></svg>
