<svg xmlns="http://www.w3.org/2000/svg" viewBox="0 0 580 310" width="580" height="310"><style>
text{font-family:'Hiragino Sans','Hiragino Kaku Gothic ProN','Noto Sans JP','Yu Gothic',Meiryo,sans-serif;font-size:13px;fill:#1f2328}
.s{font-size:11.5px} .m{fill:#5b636d} .b{font-weight:700} .a{fill:#0f6e6a} .a2{fill:#c0612b} .a3{fill:#3b6fb6}
.ln{stroke:#1f2328;stroke-width:1.5;fill:none} .thin{stroke:#5b636d;stroke-width:1;fill:none}
.grid{stroke:#e3e3dc;stroke-width:1} .dash{stroke-dasharray:5 4} .dot{stroke-dasharray:2 3}
.c1{stroke:#0f6e6a;stroke-width:2.5;fill:none} .c2{stroke:#c0612b;stroke-width:2.5;fill:none} .c3{stroke:#3b6fb6;stroke-width:2.5;fill:none}
.eq{stroke:#1f2328;stroke-width:1.5;fill:#fff}
</style><defs>
<marker id="ar" viewBox="0 0 10 10" refX="9" refY="5" markerWidth="7" markerHeight="7" orient="auto-start-reverse"><path d="M0,0 L10,5 L0,10 z" fill="#1f2328"/></marker>
<marker id="ara" viewBox="0 0 10 10" refX="9" refY="5" markerWidth="7" markerHeight="7" orient="auto-start-reverse"><path d="M0,0 L10,5 L0,10 z" fill="#0f6e6a"/></marker>
<marker id="ar2" viewBox="0 0 10 10" refX="9" refY="5" markerWidth="7" markerHeight="7" orient="auto-start-reverse"><path d="M0,0 L10,5 L0,10 z" fill="#c0612b"/></marker>
<marker id="ar3" viewBox="0 0 10 10" refX="9" refY="5" markerWidth="7" markerHeight="7" orient="auto-start-reverse"><path d="M0,0 L10,5 L0,10 z" fill="#3b6fb6"/></marker>
<marker id="arm" viewBox="0 0 10 10" refX="9" refY="5" markerWidth="6" markerHeight="6" orient="auto-start-reverse"><path d="M0,0 L10,5 L0,10 z" fill="#5b636d"/></marker>
</defs><rect width="580" height="310" fill="#fff"/><line x1="80.0" y1="30.0" x2="80.0" y2="240.0" class="grid"/><line x1="80.0" y1="240.0" x2="80.0" y2="244.0" class="thin"/><text x="80.0" y="258.0" text-anchor="middle" class="s m">0</text><line x1="144.3" y1="30.0" x2="144.3" y2="240.0" class="grid"/><line x1="144.3" y1="240.0" x2="144.3" y2="244.0" class="thin"/><text x="144.3" y="258.0" text-anchor="middle" class="s m">2</text><line x1="208.6" y1="30.0" x2="208.6" y2="240.0" class="grid"/><line x1="208.6" y1="240.0" x2="208.6" y2="244.0" class="thin"/><text x="208.6" y="258.0" text-anchor="middle" class="s m">4</text><line x1="272.9" y1="30.0" x2="272.9" y2="240.0" class="grid"/><line x1="272.9" y1="240.0" x2="272.9" y2="244.0" class="thin"/><text x="272.9" y="258.0" text-anchor="middle" class="s m">6</text><line x1="337.1" y1="30.0" x2="337.1" y2="240.0" class="grid"/><line x1="337.1" y1="240.0" x2="337.1" y2="244.0" class="thin"/><text x="337.1" y="258.0" text-anchor="middle" class="s m">8</text><line x1="401.4" y1="30.0" x2="401.4" y2="240.0" class="grid"/><line x1="401.4" y1="240.0" x2="401.4" y2="244.0" class="thin"/><text x="401.4" y="258.0" text-anchor="middle" class="s m">10</text><line x1="465.7" y1="30.0" x2="465.7" y2="240.0" class="grid"/><line x1="465.7" y1="240.0" x2="465.7" y2="244.0" class="thin"/><text x="465.7" y="258.0" text-anchor="middle" class="s m">12</text><line x1="530.0" y1="30.0" x2="530.0" y2="240.0" class="grid"/><line x1="530.0" y1="240.0" x2="530.0" y2="244.0" class="thin"/><text x="530.0" y="258.0" text-anchor="middle" class="s m">14</text><line x1="80.0" y1="240.0" x2="530.0" y2="240.0" class="grid"/><line x1="76.0" y1="240.0" x2="80.0" y2="240.0" class="thin"/><text x="72.0" y="244.0" text-anchor="end" class="s m">0.0</text><line x1="80.0" y1="201.8" x2="530.0" y2="201.8" class="grid"/><line x1="76.0" y1="201.8" x2="80.0" y2="201.8" class="thin"/><text x="72.0" y="205.8" text-anchor="end" class="s m">0.1</text><line x1="80.0" y1="163.6" x2="530.0" y2="163.6" class="grid"/><line x1="76.0" y1="163.6" x2="80.0" y2="163.6" class="thin"/><text x="72.0" y="167.6" text-anchor="end" class="s m">0.2</text><line x1="80.0" y1="125.5" x2="530.0" y2="125.5" class="grid"/><line x1="76.0" y1="125.5" x2="80.0" y2="125.5" class="thin"/><text x="72.0" y="129.5" text-anchor="end" class="s m">0.3</text><line x1="80.0" y1="87.3" x2="530.0" y2="87.3" class="grid"/><line x1="76.0" y1="87.3" x2="80.0" y2="87.3" class="thin"/><text x="72.0" y="91.3" text-anchor="end" class="s m">0.4</text><line x1="80.0" y1="49.1" x2="530.0" y2="49.1" class="grid"/><line x1="76.0" y1="49.1" x2="80.0" y2="49.1" class="thin"/><text x="72.0" y="53.1" text-anchor="end" class="s m">0.5</text><rect x="80.0" y="30.0" width="450.0" height="210.0" rx="0" fill="none" stroke="#5b636d" stroke-width="1"/><text x="305.0" y="276.0" text-anchor="middle">乾燥時間 [h]</text><text x="36.0" y="135.0" text-anchor="middle" transform="rotate(-90 36.0 135.0)">含水率 X</text><path d="M80.0,49.1 L272.9,163.6" class="c1"/><path d="M272.9,163.6 L274.1,164.4 L275.4,165.1 L276.7,165.9 L278.0,166.6 L279.3,167.4 L280.6,168.1 L281.9,168.8 L283.1,169.5 L284.4,170.2 L285.7,170.9 L287.0,171.5 L288.3,172.2 L289.6,172.9 L290.9,173.5 L292.1,174.2 L293.4,174.8 L294.7,175.5 L296.0,176.1 L297.3,176.7 L298.6,177.3 L299.9,177.9 L301.1,178.5 L302.4,179.1 L303.7,179.7 L305.0,180.3 L306.3,180.9 L307.6,181.4 L308.9,182.0 L310.1,182.6 L311.4,183.1 L312.7,183.7 L314.0,184.2 L315.3,184.7 L316.6,185.3 L317.9,185.8 L319.1,186.3 L320.4,186.8 L321.7,187.3 L323.0,187.8 L324.3,188.3 L325.6,188.8 L326.9,189.3 L328.1,189.7 L329.4,190.2 L330.7,190.7 L332.0,191.1 L333.3,191.6 L334.6,192.0 L335.9,192.5 L337.1,192.9 L338.4,193.4 L339.7,193.8 L341.0,194.2 L342.3,194.6 L343.6,195.1 L344.9,195.5 L346.1,195.9 L347.4,196.3 L348.7,196.7 L350.0,197.1 L351.3,197.5 L352.6,197.9 L353.9,198.2 L355.1,198.6 L356.4,199.0 L357.7,199.4 L359.0,199.7 L360.3,200.1 L361.6,200.4 L362.9,200.8 L364.1,201.1 L365.4,201.5 L366.7,201.8 L368.0,202.2 L369.3,202.5 L370.6,202.8 L371.9,203.2 L373.1,203.5 L374.4,203.8 L375.7,204.1 L377.0,204.4 L378.3,204.7 L379.6,205.0 L380.9,205.3 L382.1,205.6 L383.4,205.9 L384.7,206.2 L386.0,206.5 L387.3,206.8 L388.6,207.1 L389.9,207.4 L391.1,207.6 L392.4,207.9 L393.7,208.2 L395.0,208.4 L396.3,208.7 L397.6,209.0 L398.9,209.2 L400.1,209.5 L401.4,209.7 L402.7,210.0 L404.0,210.2 L405.3,210.5 L406.6,210.7 L407.9,211.0 L409.1,211.2 L410.4,211.4 L411.7,211.7 L413.0,211.9 L414.3,212.1 L415.6,212.3 L416.9,212.6 L418.1,212.8 L419.4,213.0 L420.7,213.2 L422.0,213.4 L423.3,213.6 L424.6,213.8 L425.9,214.0 L427.1,214.2 L428.4,214.4 L429.7,214.6 L431.0,214.8 L432.3,215.0 L433.6,215.2 L434.9,215.4 L436.1,215.6 L437.4,215.8 L438.7,216.0 L440.0,216.2 L441.3,216.3 L442.6,216.5 L443.9,216.7 L445.1,216.9 L446.4,217.0 L447.7,217.2 L449.0,217.4 L450.3,217.5 L451.6,217.7 L452.9,217.9 L454.1,218.0 L455.4,218.2 L456.7,218.3 L458.0,218.5 L459.3,218.6 L460.6,218.8 L461.9,218.9 L463.1,219.1 L464.4,219.2 L465.7,219.4 L467.0,219.5 L468.3,219.7 L469.6,219.8 L470.9,219.9 L472.1,220.1 L473.4,220.2 L474.7,220.4 L476.0,220.5 L477.3,220.6 L478.6,220.7 L479.9,220.9 L481.1,221.0 L482.4,221.1 L483.7,221.3 L485.0,221.4 L486.3,221.5 L487.6,221.6 L488.9,221.7 L490.1,221.9 L491.4,222.0 L492.7,222.1 L494.0,222.2 L495.3,222.3 L496.6,222.4 L497.9,222.5 L499.1,222.6 L500.4,222.7 L501.7,222.9 L503.0,223.0 L504.3,223.1 L505.6,223.2 L506.9,223.3 L508.1,223.4 L509.4,223.5 L510.7,223.6 L512.0,223.7 L513.3,223.8 L514.6,223.9 L515.9,223.9 L517.1,224.0 L518.4,224.1 L519.7,224.2 L521.0,224.3 L522.3,224.4 L523.6,224.5 L524.9,224.6 L526.1,224.7 L527.4,224.7 L528.7,224.8 L530.0,224.9" class="c1"/><circle cx="480.2" cy="220.9" r="5.0" fill="#c0612b" stroke="#fff" stroke-width="1.5"/><text x="472.2" y="206.9" text-anchor="end" class="s b a2">X = 0.05 まで約 12.5 h</text><line x1="272.9" y1="240.0" x2="272.9" y2="30.0" class="thin dot"/><text x="176.4" y="41.5" text-anchor="middle" class="s b a">恒率期間 6.0 h</text><text x="176.4" y="57.5" text-anchor="middle" class="s m">水 30 kg</text><text x="378.9" y="41.5" text-anchor="middle" class="s b a">減率期間 6.5 h</text><text x="378.9" y="57.5" text-anchor="middle" class="s m">水 15 kg</text><line x1="80.0" y1="232.4" x2="530.0" y2="232.4" class="thin dash"/><text x="86.4" y="226.4" class="s m">平衡含水率 X_e = 0.02</text></svg>
