<svg xmlns="http://www.w3.org/2000/svg" viewBox="0 0 660 250" width="660" height="250"><style>
text{font-family:'Hiragino Sans','Hiragino Kaku Gothic ProN','Noto Sans JP','Yu Gothic',Meiryo,sans-serif;font-size:13px;fill:#1f2328}
.s{font-size:11.5px} .m{fill:#5b636d} .b{font-weight:700} .a{fill:#0f6e6a} .a2{fill:#c0612b} .a3{fill:#3b6fb6}
.ln{stroke:#1f2328;stroke-width:1.5;fill:none} .thin{stroke:#5b636d;stroke-width:1;fill:none}
.grid{stroke:#e3e3dc;stroke-width:1} .dash{stroke-dasharray:5 4} .dot{stroke-dasharray:2 3}
.c1{stroke:#0f6e6a;stroke-width:2.5;fill:none} .c2{stroke:#c0612b;stroke-width:2.5;fill:none} .c3{stroke:#3b6fb6;stroke-width:2.5;fill:none}
.eq{stroke:#1f2328;stroke-width:1.5;fill:#fff}
</style><defs>
<marker id="ar" viewBox="0 0 10 10" refX="9" refY="5" markerWidth="7" markerHeight="7" orient="auto-start-reverse"><path d="M0,0 L10,5 L0,10 z" fill="#1f2328"/></marker>
<marker id="ara" viewBox="0 0 10 10" refX="9" refY="5" markerWidth="7" markerHeight="7" orient="auto-start-reverse"><path d="M0,0 L10,5 L0,10 z" fill="#0f6e6a"/></marker>
<marker id="ar2" viewBox="0 0 10 10" refX="9" refY="5" markerWidth="7" markerHeight="7" orient="auto-start-reverse"><path d="M0,0 L10,5 L0,10 z" fill="#c0612b"/></marker>
<marker id="ar3" viewBox="0 0 10 10" refX="9" refY="5" markerWidth="7" markerHeight="7" orient="auto-start-reverse"><path d="M0,0 L10,5 L0,10 z" fill="#3b6fb6"/></marker>
<marker id="arm" viewBox="0 0 10 10" refX="9" refY="5" markerWidth="6" markerHeight="6" orient="auto-start-reverse"><path d="M0,0 L10,5 L0,10 z" fill="#5b636d"/></marker>
</defs><rect width="660" height="250" fill="#fff"/><rect x="40.0" y="50.0" width="140.0" height="120.0" rx="0" fill="#fff" stroke="#1f2328" stroke-width="1.5"/><rect x="40" y="50" width="20" height="120" fill="#c0612b" opacity="0.85"/><rect x="60" y="50" width="20" height="120" fill="#c0612b" opacity="0.74"/><rect x="80" y="50" width="20" height="120" fill="#c0612b" opacity="0.63"/><rect x="100" y="50" width="20" height="120" fill="#c0612b" opacity="0.52"/><rect x="120" y="50" width="20" height="120" fill="#c0612b" opacity="0.41"/><rect x="140" y="50" width="20" height="120" fill="#c0612b" opacity="0.30"/><rect x="160" y="50" width="20" height="120" fill="#c0612b" opacity="0.19"/><rect x="40.0" y="50.0" width="140.0" height="120.0" rx="0" fill="none" stroke="#1f2328" stroke-width="1.5"/><line x1="55.0" y1="110.0" x2="165.0" y2="110.0" stroke="#1f2328" stroke-width="2.5" marker-end="url(#ar)"/><text x="110.0" y="30.0" text-anchor="middle" class="b">伝導</text><text x="110.0" y="196.0" text-anchor="middle" class="s m">固体の中を、高温側から</text><text x="110.0" y="213.0" text-anchor="middle" class="s m">低温側へ伝わる</text><rect x="260.0" y="150.0" width="140.0" height="20.0" rx="0" fill="#c0612b" stroke="#1f2328" stroke-width="1.5"/><path d="M285,145 C273,120 297,100 285,70" class="c2" style="stroke:#c0612b;stroke-width:2" marker-end="url(#ar2)"/><path d="M330,145 C318,120 342,100 330,70" class="c2" style="stroke:#c0612b;stroke-width:2" marker-end="url(#ar2)"/><path d="M375,145 C363,120 387,100 375,70" class="c2" style="stroke:#c0612b;stroke-width:2" marker-end="url(#ar2)"/><text x="330.0" y="30.0" text-anchor="middle" class="b">対流</text><text x="330.0" y="196.0" text-anchor="middle" class="s m">流れている流体が</text><text x="330.0" y="213.0" text-anchor="middle" class="s m">熱を運ぶ</text><circle cx="520.0" cy="110.0" r="28.0" fill="#c0612b" stroke="#1f2328" stroke-width="1.5"/><path d="M554.0,110.0 L554.6,110.8 L555.1,111.6 L555.7,112.3 L556.3,112.8 L556.9,113.2 L557.5,113.5 L558.0,113.5 L558.6,113.3 L559.2,113.0 L559.8,112.5 L560.3,111.8 L560.9,111.1 L561.5,110.3 L562.0,109.5 L562.6,108.7 L563.2,107.9 L563.8,107.3 L564.4,106.9 L564.9,106.6 L565.5,106.5 L566.1,106.6 L566.6,106.9 L567.2,107.3 L567.8,107.9 L568.4,108.7 L569.0,109.5 L569.5,110.3 L570.1,111.1 L570.7,111.8 L571.2,112.5 L571.8,113.0 L572.4,113.3 L573.0,113.5 L573.5,113.5 L574.1,113.2 L574.7,112.8 L575.3,112.3 L575.9,111.6 L576.4,110.8 L577.0,110.0 L577.6,109.2 L578.1,108.4 L578.7,107.7 L579.3,107.2 L579.9,106.8 L580.5,106.5 L581.0,106.5 L581.6,106.7 L582.2,107.0 L582.8,107.5 L583.3,108.2 L583.9,108.9 L584.5,109.7 L585.0,110.5 L585.6,111.3 L586.2,112.1 L586.8,112.7 L587.4,113.1 L587.9,113.4 L588.5,113.5 L589.1,113.4 L589.6,113.1 L590.2,112.7 L590.8,112.1 L591.4,111.3 L592.0,110.5 L592.5,109.7 L593.1,108.9 L593.7,108.2 L594.2,107.5 L594.8,107.0 L595.4,106.7 L596.0,106.9 L596.5,107.4 L597.1,108.0 L597.7,108.6 L598.3,109.1 L598.9,109.6 L599.4,109.9 L600.0,110.0" class="c2" style="stroke:#c0612b;stroke-width:2" marker-end="url(#ar2)"/><path d="M537.0,139.4 L536.6,140.4 L536.2,141.2 L535.9,142.1 L535.7,142.9 L535.6,143.6 L535.7,144.2 L536.0,144.7 L536.4,145.1 L537.0,145.4 L537.7,145.7 L538.6,145.8 L539.5,146.0 L540.5,146.1 L541.5,146.1 L542.5,146.2 L543.4,146.4 L544.2,146.6 L544.9,146.8 L545.4,147.2 L545.8,147.7 L546.0,148.2 L546.0,148.8 L545.9,149.6 L545.7,150.4 L545.3,151.2 L544.9,152.1 L544.5,153.0 L544.1,153.9 L543.8,154.8 L543.5,155.6 L543.3,156.4 L543.3,157.0 L543.5,157.6 L543.8,158.1 L544.3,158.5 L544.9,158.8 L545.7,159.0 L546.5,159.2 L547.5,159.3 L548.5,159.4 L549.5,159.5 L550.5,159.6 L551.3,159.7 L552.1,159.9 L552.7,160.2 L553.2,160.6 L553.5,161.1 L553.7,161.7 L553.7,162.4 L553.5,163.1 L553.2,163.9 L552.9,164.8 L552.5,165.7 L552.1,166.6 L551.7,167.5 L551.3,168.4 L551.1,169.2 L551.0,169.9 L551.0,170.5 L551.2,171.1 L551.6,171.5 L552.1,171.9 L552.8,172.1 L553.6,172.3 L554.5,172.5 L555.5,172.6 L556.5,172.7 L557.5,172.8 L558.4,172.9 L559.3,173.1 L560.0,173.3 L560.6,173.6 L560.6,174.3 L560.5,175.0 L560.3,175.8 L560.1,176.6 L559.9,177.4 L559.8,178.1 L559.8,178.7 L560.0,179.3" class="c2" style="stroke:#c0612b;stroke-width:2" marker-end="url(#ar2)"/><path d="M503.0,139.4 L502.0,139.5 L501.0,139.6 L500.2,139.8 L499.4,140.0 L498.8,140.3 L498.3,140.7 L498.0,141.2 L497.8,141.8 L497.8,142.4 L498.0,143.2 L498.3,144.0 L498.6,144.9 L499.0,145.8 L499.4,146.7 L499.8,147.6 L500.2,148.4 L500.4,149.2 L500.5,150.0 L500.5,150.6 L500.3,151.2 L499.9,151.6 L499.4,152.0 L498.7,152.2 L497.9,152.4 L497.0,152.6 L496.0,152.7 L495.0,152.8 L494.0,152.8 L493.1,153.0 L492.2,153.1 L491.5,153.4 L490.9,153.7 L490.5,154.1 L490.2,154.6 L490.1,155.3 L490.2,156.0 L490.4,156.7 L490.7,157.6 L491.1,158.5 L491.5,159.4 L491.9,160.3 L492.3,161.2 L492.6,162.0 L492.8,162.8 L492.9,163.5 L492.8,164.1 L492.5,164.6 L492.1,165.0 L491.5,165.3 L490.8,165.6 L489.9,165.8 L489.0,165.9 L488.0,166.0 L487.0,166.1 L486.0,166.2 L485.1,166.3 L484.3,166.5 L483.6,166.8 L483.1,167.1 L482.7,167.6 L482.5,168.1 L482.5,168.8 L482.6,169.5 L482.8,170.3 L483.2,171.1 L483.6,172.0 L484.0,172.9 L484.4,173.8 L484.7,174.7 L485.0,175.5 L485.2,176.3 L485.2,177.0 L484.7,177.3 L484.0,177.6 L483.2,177.8 L482.4,178.0 L481.6,178.2 L480.9,178.5 L480.4,178.8 L480.0,179.3" class="c2" style="stroke:#c0612b;stroke-width:2" marker-end="url(#ar2)"/><path d="M486.0,110.0 L485.4,109.2 L484.9,108.4 L484.3,107.7 L483.7,107.2 L483.1,106.8 L482.6,106.5 L482.0,106.5 L481.4,106.7 L480.8,107.0 L480.2,107.5 L479.7,108.2 L479.1,108.9 L478.5,109.7 L477.9,110.5 L477.4,111.3 L476.8,112.1 L476.2,112.7 L475.6,113.1 L475.1,113.4 L474.5,113.5 L473.9,113.4 L473.4,113.1 L472.8,112.7 L472.2,112.1 L471.6,111.3 L471.1,110.5 L470.5,109.7 L469.9,108.9 L469.3,108.2 L468.8,107.5 L468.2,107.0 L467.6,106.7 L467.0,106.5 L466.4,106.5 L465.9,106.8 L465.3,107.2 L464.7,107.7 L464.1,108.4 L463.6,109.2 L463.0,110.0 L462.4,110.8 L461.9,111.6 L461.3,112.3 L460.7,112.8 L460.1,113.2 L459.6,113.5 L459.0,113.5 L458.4,113.3 L457.8,113.0 L457.2,112.5 L456.7,111.8 L456.1,111.1 L455.5,110.3 L454.9,109.5 L454.4,108.7 L453.8,107.9 L453.2,107.3 L452.6,106.9 L452.1,106.6 L451.5,106.5 L450.9,106.6 L450.4,106.9 L449.8,107.3 L449.2,107.9 L448.6,108.7 L448.1,109.5 L447.5,110.3 L446.9,111.1 L446.3,111.8 L445.8,112.5 L445.2,113.0 L444.6,113.3 L444.0,113.1 L443.4,112.6 L442.9,112.0 L442.3,111.4 L441.7,110.9 L441.1,110.4 L440.6,110.1 L440.0,110.0" class="c2" style="stroke:#c0612b;stroke-width:2" marker-end="url(#ar2)"/><path d="M503.0,80.6 L503.4,79.6 L503.8,78.8 L504.1,77.9 L504.3,77.1 L504.4,76.4 L504.3,75.8 L504.0,75.3 L503.6,74.9 L503.0,74.6 L502.3,74.3 L501.4,74.2 L500.5,74.0 L499.5,73.9 L498.5,73.9 L497.5,73.8 L496.6,73.6 L495.8,73.4 L495.1,73.2 L494.6,72.8 L494.2,72.3 L494.0,71.8 L494.0,71.2 L494.1,70.4 L494.3,69.6 L494.7,68.8 L495.1,67.9 L495.5,67.0 L495.9,66.1 L496.2,65.2 L496.5,64.4 L496.7,63.6 L496.7,63.0 L496.5,62.4 L496.2,61.9 L495.7,61.5 L495.1,61.2 L494.3,61.0 L493.5,60.8 L492.5,60.7 L491.5,60.6 L490.5,60.5 L489.5,60.4 L488.7,60.3 L487.9,60.1 L487.3,59.8 L486.8,59.4 L486.5,58.9 L486.3,58.3 L486.3,57.6 L486.5,56.9 L486.8,56.1 L487.1,55.2 L487.5,54.3 L487.9,53.4 L488.3,52.5 L488.7,51.6 L488.9,50.8 L489.0,50.1 L489.0,49.5 L488.8,48.9 L488.4,48.5 L487.9,48.1 L487.2,47.9 L486.4,47.7 L485.5,47.5 L484.5,47.4 L483.5,47.3 L482.5,47.2 L481.6,47.1 L480.7,46.9 L480.0,46.7 L479.4,46.4 L479.4,45.7 L479.5,45.0 L479.7,44.2 L479.9,43.4 L480.1,42.6 L480.2,41.9 L480.2,41.3 L480.0,40.7" class="c2" style="stroke:#c0612b;stroke-width:2" marker-end="url(#ar2)"/><path d="M537.0,80.6 L538.0,80.5 L539.0,80.4 L539.8,80.2 L540.6,80.0 L541.2,79.7 L541.7,79.3 L542.0,78.8 L542.2,78.2 L542.2,77.6 L542.0,76.8 L541.7,76.0 L541.4,75.1 L541.0,74.2 L540.6,73.3 L540.2,72.4 L539.8,71.6 L539.6,70.8 L539.5,70.0 L539.5,69.4 L539.7,68.8 L540.1,68.4 L540.6,68.0 L541.3,67.8 L542.1,67.6 L543.0,67.4 L544.0,67.3 L545.0,67.2 L546.0,67.2 L546.9,67.0 L547.8,66.9 L548.5,66.6 L549.1,66.3 L549.5,65.9 L549.8,65.4 L549.9,64.7 L549.8,64.0 L549.6,63.3 L549.3,62.4 L548.9,61.5 L548.5,60.6 L548.1,59.7 L547.7,58.8 L547.4,58.0 L547.2,57.2 L547.1,56.5 L547.2,55.9 L547.5,55.4 L547.9,55.0 L548.5,54.7 L549.2,54.4 L550.1,54.2 L551.0,54.1 L552.0,54.0 L553.0,53.9 L554.0,53.8 L554.9,53.7 L555.7,53.5 L556.4,53.2 L556.9,52.9 L557.3,52.4 L557.5,51.9 L557.5,51.2 L557.4,50.5 L557.2,49.7 L556.8,48.9 L556.4,48.0 L556.0,47.1 L555.6,46.2 L555.3,45.3 L555.0,44.5 L554.8,43.7 L554.8,43.0 L555.3,42.7 L556.0,42.4 L556.8,42.2 L557.6,42.0 L558.4,41.8 L559.1,41.5 L559.6,41.2 L560.0,40.7" class="c2" style="stroke:#c0612b;stroke-width:2" marker-end="url(#ar2)"/><text x="520.0" y="30.0" text-anchor="middle" class="b">放射</text><text x="520.0" y="213.0" text-anchor="middle" class="s m">電磁波で伝わる（真空でも伝わる）</text></svg>
