<svg xmlns="http://www.w3.org/2000/svg" viewBox="0 0 600 260" width="600" height="260"><style>
text{font-family:'Hiragino Sans','Hiragino Kaku Gothic ProN','Noto Sans JP','Yu Gothic',Meiryo,sans-serif;font-size:13px;fill:#1f2328}
.s{font-size:11.5px} .m{fill:#5b636d} .b{font-weight:700} .a{fill:#0f6e6a} .a2{fill:#c0612b} .a3{fill:#3b6fb6}
.ln{stroke:#1f2328;stroke-width:1.5;fill:none} .thin{stroke:#5b636d;stroke-width:1;fill:none}
.grid{stroke:#e3e3dc;stroke-width:1} .dash{stroke-dasharray:5 4} .dot{stroke-dasharray:2 3}
.c1{stroke:#0f6e6a;stroke-width:2.5;fill:none} .c2{stroke:#c0612b;stroke-width:2.5;fill:none} .c3{stroke:#3b6fb6;stroke-width:2.5;fill:none}
.eq{stroke:#1f2328;stroke-width:1.5;fill:#fff}
</style><defs>
<marker id="ar" viewBox="0 0 10 10" refX="9" refY="5" markerWidth="7" markerHeight="7" orient="auto-start-reverse"><path d="M0,0 L10,5 L0,10 z" fill="#1f2328"/></marker>
<marker id="ara" viewBox="0 0 10 10" refX="9" refY="5" markerWidth="7" markerHeight="7" orient="auto-start-reverse"><path d="M0,0 L10,5 L0,10 z" fill="#0f6e6a"/></marker>
<marker id="ar2" viewBox="0 0 10 10" refX="9" refY="5" markerWidth="7" markerHeight="7" orient="auto-start-reverse"><path d="M0,0 L10,5 L0,10 z" fill="#c0612b"/></marker>
<marker id="ar3" viewBox="0 0 10 10" refX="9" refY="5" markerWidth="7" markerHeight="7" orient="auto-start-reverse"><path d="M0,0 L10,5 L0,10 z" fill="#3b6fb6"/></marker>
<marker id="arm" viewBox="0 0 10 10" refX="9" refY="5" markerWidth="6" markerHeight="6" orient="auto-start-reverse"><path d="M0,0 L10,5 L0,10 z" fill="#5b636d"/></marker>
</defs><rect width="600" height="260" fill="#fff"/><rect x="30.0" y="40.0" width="130.0" height="130.0" rx="8" fill="#fff" stroke="#1f2328" stroke-width="1.5"/><circle cx="73.1" cy="151.2" r="6.0" fill="#c0612b" stroke="#fff" stroke-width="1"/><circle cx="145.9" cy="124.2" r="6.0" fill="#c0612b" stroke="#fff" stroke-width="1"/><circle cx="138.7" cy="105.3" r="6.0" fill="#c0612b" stroke="#fff" stroke-width="1"/><circle cx="115.4" cy="152.8" r="6.0" fill="#c0612b" stroke="#fff" stroke-width="1"/><circle cx="140.8" cy="84.8" r="6.0" fill="#3b6fb6" stroke="#fff" stroke-width="1"/><circle cx="104.6" cy="83.6" r="6.0" fill="#3b6fb6" stroke="#fff" stroke-width="1"/><circle cx="139.5" cy="148.4" r="6.0" fill="#3b6fb6" stroke="#fff" stroke-width="1"/><circle cx="137.4" cy="54.1" r="6.0" fill="#3b6fb6" stroke="#fff" stroke-width="1"/><circle cx="113.8" cy="124.8" r="6.0" fill="#3b6fb6" stroke="#fff" stroke-width="1"/><circle cx="47.0" cy="57.4" r="6.0" fill="#3b6fb6" stroke="#fff" stroke-width="1"/><circle cx="76.5" cy="104.5" r="6.0" fill="#3b6fb6" stroke="#fff" stroke-width="1"/><circle cx="72.8" cy="75.6" r="6.0" fill="#3b6fb6" stroke="#fff" stroke-width="1"/><circle cx="42.5" cy="153.8" r="6.0" fill="#3b6fb6" stroke="#fff" stroke-width="1"/><circle cx="45.1" cy="102.1" r="6.0" fill="#3b6fb6" stroke="#fff" stroke-width="1"/><circle cx="79.0" cy="127.5" r="6.0" fill="#3b6fb6" stroke="#fff" stroke-width="1"/><circle cx="107.6" cy="58.9" r="6.0" fill="#3b6fb6" stroke="#fff" stroke-width="1"/><circle cx="80.4" cy="53.4" r="6.0" fill="#3b6fb6" stroke="#fff" stroke-width="1"/><circle cx="46.9" cy="128.3" r="6.0" fill="#3b6fb6" stroke="#fff" stroke-width="1"/><circle cx="50.5" cy="82.3" r="6.0" fill="#3b6fb6" stroke="#fff" stroke-width="1"/><text x="95.0" y="192.0" text-anchor="middle" class="b">混合気体（空気）</text><text x="95.0" y="212.0" text-anchor="middle" class="s m">全圧 P = 101.3 kPa</text><text x="180.0" y="110.0" text-anchor="middle" style="font-size:28px">=</text><rect x="225.0" y="40.0" width="130.0" height="130.0" rx="8" fill="#fff" stroke="#1f2328" stroke-width="1.5"/><circle cx="268.1" cy="151.2" r="6.0" fill="#c0612b" stroke="#fff" stroke-width="1"/><circle cx="340.9" cy="124.2" r="6.0" fill="#c0612b" stroke="#fff" stroke-width="1"/><circle cx="333.7" cy="105.3" r="6.0" fill="#c0612b" stroke="#fff" stroke-width="1"/><circle cx="310.4" cy="152.8" r="6.0" fill="#c0612b" stroke="#fff" stroke-width="1"/><text x="290.0" y="192.0" text-anchor="middle" class="b">酸素だけ</text><text x="290.0" y="212.0" text-anchor="middle" class="s m">分圧 0.21P ≈ 21.3 kPa</text><text x="375.0" y="110.0" text-anchor="middle" style="font-size:28px">+</text><rect x="420.0" y="40.0" width="130.0" height="130.0" rx="8" fill="#fff" stroke="#1f2328" stroke-width="1.5"/><circle cx="530.8" cy="84.8" r="6.0" fill="#3b6fb6" stroke="#fff" stroke-width="1"/><circle cx="494.6" cy="83.6" r="6.0" fill="#3b6fb6" stroke="#fff" stroke-width="1"/><circle cx="529.5" cy="148.4" r="6.0" fill="#3b6fb6" stroke="#fff" stroke-width="1"/><circle cx="527.4" cy="54.1" r="6.0" fill="#3b6fb6" stroke="#fff" stroke-width="1"/><circle cx="503.8" cy="124.8" r="6.0" fill="#3b6fb6" stroke="#fff" stroke-width="1"/><circle cx="437.0" cy="57.4" r="6.0" fill="#3b6fb6" stroke="#fff" stroke-width="1"/><circle cx="466.5" cy="104.5" r="6.0" fill="#3b6fb6" stroke="#fff" stroke-width="1"/><circle cx="462.8" cy="75.6" r="6.0" fill="#3b6fb6" stroke="#fff" stroke-width="1"/><circle cx="432.5" cy="153.8" r="6.0" fill="#3b6fb6" stroke="#fff" stroke-width="1"/><circle cx="435.1" cy="102.1" r="6.0" fill="#3b6fb6" stroke="#fff" stroke-width="1"/><circle cx="469.0" cy="127.5" r="6.0" fill="#3b6fb6" stroke="#fff" stroke-width="1"/><circle cx="497.6" cy="58.9" r="6.0" fill="#3b6fb6" stroke="#fff" stroke-width="1"/><circle cx="470.4" cy="53.4" r="6.0" fill="#3b6fb6" stroke="#fff" stroke-width="1"/><circle cx="436.9" cy="128.3" r="6.0" fill="#3b6fb6" stroke="#fff" stroke-width="1"/><circle cx="440.5" cy="82.3" r="6.0" fill="#3b6fb6" stroke="#fff" stroke-width="1"/><text x="485.0" y="192.0" text-anchor="middle" class="b">窒素だけ</text><text x="485.0" y="212.0" text-anchor="middle" class="s m">分圧 0.79P ≈ 80.0 kPa</text><text x="300.0" y="246.0" text-anchor="middle" class="s m">同じ容器・同じ温度で各成分だけを入れたときの圧力が分圧。合計すると全圧になる</text></svg>
