<svg xmlns="http://www.w3.org/2000/svg" viewBox="0 0 600 150" width="600" height="150"><style>
text{font-family:'Hiragino Sans','Hiragino Kaku Gothic ProN','Noto Sans JP','Yu Gothic',Meiryo,sans-serif;font-size:13px;fill:#1f2328}
.s{font-size:11.5px} .m{fill:#5b636d} .b{font-weight:700} .a{fill:#0f6e6a} .a2{fill:#c0612b} .a3{fill:#3b6fb6}
.ln{stroke:#1f2328;stroke-width:1.5;fill:none} .thin{stroke:#5b636d;stroke-width:1;fill:none}
.grid{stroke:#e3e3dc;stroke-width:1} .dash{stroke-dasharray:5 4} .dot{stroke-dasharray:2 3}
.c1{stroke:#0f6e6a;stroke-width:2.5;fill:none} .c2{stroke:#c0612b;stroke-width:2.5;fill:none} .c3{stroke:#3b6fb6;stroke-width:2.5;fill:none}
.eq{stroke:#1f2328;stroke-width:1.5;fill:#fff}
</style><defs>
<marker id="ar" viewBox="0 0 10 10" refX="9" refY="5" markerWidth="7" markerHeight="7" orient="auto-start-reverse"><path d="M0,0 L10,5 L0,10 z" fill="#1f2328"/></marker>
<marker id="ara" viewBox="0 0 10 10" refX="9" refY="5" markerWidth="7" markerHeight="7" orient="auto-start-reverse"><path d="M0,0 L10,5 L0,10 z" fill="#0f6e6a"/></marker>
<marker id="ar2" viewBox="0 0 10 10" refX="9" refY="5" markerWidth="7" markerHeight="7" orient="auto-start-reverse"><path d="M0,0 L10,5 L0,10 z" fill="#c0612b"/></marker>
<marker id="ar3" viewBox="0 0 10 10" refX="9" refY="5" markerWidth="7" markerHeight="7" orient="auto-start-reverse"><path d="M0,0 L10,5 L0,10 z" fill="#3b6fb6"/></marker>
<marker id="arm" viewBox="0 0 10 10" refX="9" refY="5" markerWidth="6" markerHeight="6" orient="auto-start-reverse"><path d="M0,0 L10,5 L0,10 z" fill="#5b636d"/></marker>
</defs><rect width="600" height="150" fill="#fff"/><rect x="40.0" y="50.0" width="169.1" height="30.0" rx="0" fill="#e3ecf8" stroke="none" stroke-width="1.5"/><rect x="209.1" y="50.0" width="39.1" height="30.0" rx="0" fill="#e3e3dc" stroke="none" stroke-width="1.5"/><rect x="248.3" y="50.0" width="311.7" height="30.0" rx="0" fill="#fbe9df" stroke="none" stroke-width="1.5"/><text x="124.6" y="70.0" text-anchor="middle" class="b a3">層流</text><text x="228.7" y="40.0" text-anchor="middle" class="s m">遷移域</text><text x="404.1" y="70.0" text-anchor="middle" class="b a2">乱流</text><line x1="40.0" y1="80.0" x2="40.0" y2="86.0" class="thin"/><text x="40.0" y="100.0" text-anchor="middle" class="s m">10²</text><line x1="170.0" y1="80.0" x2="170.0" y2="86.0" class="thin"/><text x="170.0" y="100.0" text-anchor="middle" class="s m">10³</text><line x1="300.0" y1="80.0" x2="300.0" y2="86.0" class="thin"/><text x="300.0" y="100.0" text-anchor="middle" class="s m">10⁴</text><line x1="430.0" y1="80.0" x2="430.0" y2="86.0" class="thin"/><text x="430.0" y="100.0" text-anchor="middle" class="s m">10⁵</text><line x1="560.0" y1="80.0" x2="560.0" y2="86.0" class="thin"/><text x="560.0" y="100.0" text-anchor="middle" class="s m">10⁶</text><text x="209.1" y="100.0" text-anchor="middle" class="s">2000</text><text x="248.3" y="100.0" text-anchor="middle" class="s">4000</text><polygon points="374.0224077517271,122 388.0224077517271,122 381.0224077517271,88" fill="#0f6e6a"/><text x="393.0" y="136.0" class="s b a">例題の水：Re ≈ 4.2 × 10⁴</text></svg>
