<svg xmlns="http://www.w3.org/2000/svg" viewBox="0 0 560 280" width="560" height="280"><style>
text{font-family:'Hiragino Sans','Hiragino Kaku Gothic ProN','Noto Sans JP','Yu Gothic',Meiryo,sans-serif;font-size:13px;fill:#1f2328}
.s{font-size:11.5px} .m{fill:#5b636d} .b{font-weight:700} .a{fill:#0f6e6a} .a2{fill:#c0612b} .a3{fill:#3b6fb6}
.ln{stroke:#1f2328;stroke-width:1.5;fill:none} .thin{stroke:#5b636d;stroke-width:1;fill:none}
.grid{stroke:#e3e3dc;stroke-width:1} .dash{stroke-dasharray:5 4} .dot{stroke-dasharray:2 3}
.c1{stroke:#0f6e6a;stroke-width:2.5;fill:none} .c2{stroke:#c0612b;stroke-width:2.5;fill:none} .c3{stroke:#3b6fb6;stroke-width:2.5;fill:none}
.eq{stroke:#1f2328;stroke-width:1.5;fill:#fff}
</style><defs>
<marker id="ar" viewBox="0 0 10 10" refX="9" refY="5" markerWidth="7" markerHeight="7" orient="auto-start-reverse"><path d="M0,0 L10,5 L0,10 z" fill="#1f2328"/></marker>
<marker id="ara" viewBox="0 0 10 10" refX="9" refY="5" markerWidth="7" markerHeight="7" orient="auto-start-reverse"><path d="M0,0 L10,5 L0,10 z" fill="#0f6e6a"/></marker>
<marker id="ar2" viewBox="0 0 10 10" refX="9" refY="5" markerWidth="7" markerHeight="7" orient="auto-start-reverse"><path d="M0,0 L10,5 L0,10 z" fill="#c0612b"/></marker>
<marker id="ar3" viewBox="0 0 10 10" refX="9" refY="5" markerWidth="7" markerHeight="7" orient="auto-start-reverse"><path d="M0,0 L10,5 L0,10 z" fill="#3b6fb6"/></marker>
<marker id="arm" viewBox="0 0 10 10" refX="9" refY="5" markerWidth="6" markerHeight="6" orient="auto-start-reverse"><path d="M0,0 L10,5 L0,10 z" fill="#5b636d"/></marker>
</defs><rect width="560" height="280" fill="#fff"/><rect x="40.0" y="40.0" width="30.0" height="200.0" rx="0" fill="#c0612b" stroke="#1f2328" stroke-width="1.5"/><text x="55.0" y="262.0" text-anchor="middle" class="s b">壁 T_壁</text><path d="M70.0,80.0 L76.0,98.7 L82.0,115.1 L88.0,129.5 L94.0,142.0 L100.0,153.0 L106.0,162.6 L112.0,171.0 L118.0,178.4 L124.0,184.8 L130.0,190.5 L136.0,195.4 L142.0,199.7 L148.0,203.5 L154.0,206.8 L160.0,209.7 L166.0,212.2 L172.0,214.5 L178.0,216.4 L184.0,218.1 L190.0,219.6 L196.0,220.9 L202.0,222.0 L208.0,223.0 L214.0,223.9 L220.0,224.6 L226.0,225.3 L232.0,225.9 L238.0,226.4 L244.0,226.9 L250.0,227.3 L256.0,227.6 L262.0,227.9 L268.0,228.2 L274.0,228.4 L280.0,228.6 L286.0,228.8 L292.0,228.9 L298.0,229.1 L304.0,229.2 L310.0,229.3 L316.0,229.4 L322.0,229.4 L328.0,229.5 L334.0,229.6 L340.0,229.6 L346.0,229.7 L352.0,229.7 L358.0,229.8 L364.0,229.8 L370.0,229.8 L376.0,229.8 L382.0,229.9 L388.0,229.9 L394.0,229.9 L400.0,229.9 L406.0,229.9 L412.0,229.9 L418.0,229.9 L424.0,229.9 L430.0,229.9 L436.0,230.0 L442.0,230.0 L448.0,230.0 L454.0,230.0 L460.0,230.0 L466.0,230.0 L472.0,230.0 L478.0,230.0 L484.0,230.0 L490.0,230.0" class="c2"/><line x1="70.0" y1="230.0" x2="500.0" y2="230.0" class="thin"/><line x1="70.0" y1="80.0" x2="70.0" y2="230.0" class="thin"/><line x1="70.0" y1="80.0" x2="500.0" y2="80.0" class="thin dot"/><text x="500.0" y="74.0" text-anchor="end" class="s m">流体の温度 T_流体</text><rect x="70" y="40" width="80" height="200" fill="#fbe9df" opacity="0.5"/><text x="110.0" y="56.0" text-anchor="middle" class="s b">境膜</text><text x="110.0" y="252.0" class="s m">← 温度が大きく変わる薄い層</text><line x1="300.0" y1="110.0" x2="380.0" y2="110.0" stroke="#3b6fb6" stroke-width="1.8" marker-end="url(#ar3)"/><line x1="300.0" y1="150.0" x2="380.0" y2="150.0" stroke="#3b6fb6" stroke-width="1.8" marker-end="url(#ar3)"/><line x1="300.0" y1="190.0" x2="380.0" y2="190.0" stroke="#3b6fb6" stroke-width="1.8" marker-end="url(#ar3)"/><text x="390.0" y="155.0" class="s a3">流れ</text><text x="300.0" y="30.0" text-anchor="middle" class="s">熱抵抗は壁の近くの境膜に集中する → h は流速や流路の形で変わる</text></svg>
