<svg xmlns="http://www.w3.org/2000/svg" viewBox="0 0 580 290" width="580" height="290"><style>
text{font-family:'Hiragino Sans','Hiragino Kaku Gothic ProN','Noto Sans JP','Yu Gothic',Meiryo,sans-serif;font-size:13px;fill:#1f2328}
.s{font-size:11.5px} .m{fill:#5b636d} .b{font-weight:700} .a{fill:#0f6e6a} .a2{fill:#c0612b} .a3{fill:#3b6fb6}
.ln{stroke:#1f2328;stroke-width:1.5;fill:none} .thin{stroke:#5b636d;stroke-width:1;fill:none}
.grid{stroke:#e3e3dc;stroke-width:1} .dash{stroke-dasharray:5 4} .dot{stroke-dasharray:2 3}
.c1{stroke:#0f6e6a;stroke-width:2.5;fill:none} .c2{stroke:#c0612b;stroke-width:2.5;fill:none} .c3{stroke:#3b6fb6;stroke-width:2.5;fill:none}
.eq{stroke:#1f2328;stroke-width:1.5;fill:#fff}
</style><defs>
<marker id="ar" viewBox="0 0 10 10" refX="9" refY="5" markerWidth="7" markerHeight="7" orient="auto-start-reverse"><path d="M0,0 L10,5 L0,10 z" fill="#1f2328"/></marker>
<marker id="ara" viewBox="0 0 10 10" refX="9" refY="5" markerWidth="7" markerHeight="7" orient="auto-start-reverse"><path d="M0,0 L10,5 L0,10 z" fill="#0f6e6a"/></marker>
<marker id="ar2" viewBox="0 0 10 10" refX="9" refY="5" markerWidth="7" markerHeight="7" orient="auto-start-reverse"><path d="M0,0 L10,5 L0,10 z" fill="#c0612b"/></marker>
<marker id="ar3" viewBox="0 0 10 10" refX="9" refY="5" markerWidth="7" markerHeight="7" orient="auto-start-reverse"><path d="M0,0 L10,5 L0,10 z" fill="#3b6fb6"/></marker>
<marker id="arm" viewBox="0 0 10 10" refX="9" refY="5" markerWidth="6" markerHeight="6" orient="auto-start-reverse"><path d="M0,0 L10,5 L0,10 z" fill="#5b636d"/></marker>
</defs><rect width="580" height="290" fill="#fff"/><line x1="80.0" y1="210.0" x2="80.0" y2="214.0" class="thin"/><text x="80.0" y="228.0" text-anchor="middle" class="s m">0</text><line x1="215.0" y1="210.0" x2="215.0" y2="214.0" class="thin"/><text x="215.0" y="228.0" text-anchor="middle" class="s m">60</text><line x1="350.0" y1="210.0" x2="350.0" y2="214.0" class="thin"/><text x="350.0" y="228.0" text-anchor="middle" class="s m">120</text><line x1="485.0" y1="210.0" x2="485.0" y2="214.0" class="thin"/><text x="485.0" y="228.0" text-anchor="middle" class="s m">180</text><rect x="80.0" y="30.0" width="450.0" height="180.0" rx="0" fill="none" stroke="#5b636d" stroke-width="1"/><text x="305.0" y="246.0" text-anchor="middle">時間 [s]</text><text x="36.0" y="120.0" text-anchor="middle" transform="rotate(-90 36.0 120.0)">制御量のずれ</text><line x1="80.0" y1="120.0" x2="530.0" y2="120.0" class="thin dash"/><path d="M80.0,120.0 L81.1,116.4 L82.2,112.8 L83.4,109.2 L84.5,105.6 L85.6,102.1 L86.8,98.6 L87.9,95.2 L89.0,91.8 L90.1,88.6 L91.2,85.4 L92.4,82.3 L93.5,79.3 L94.6,76.4 L95.8,73.7 L96.9,71.0 L98.0,68.6 L99.1,66.2 L100.2,64.0 L101.4,61.9 L102.5,60.0 L103.6,58.3 L104.8,56.8 L105.9,55.4 L107.0,54.2 L108.1,53.1 L109.2,52.3 L110.4,51.6 L111.5,51.1 L112.6,50.9 L113.8,50.8 L114.9,50.9 L116.0,51.1 L117.1,51.6 L118.2,52.3 L119.4,53.1 L120.5,54.2 L121.6,55.4 L122.8,56.8 L123.9,58.3 L125.0,60.0 L126.1,61.9 L127.2,64.0 L128.4,66.2 L129.5,68.6 L130.6,71.0 L131.8,73.7 L132.9,76.4 L134.0,79.3 L135.1,82.3 L136.2,85.4 L137.4,88.6 L138.5,91.8 L139.6,95.2 L140.8,98.6 L141.9,102.1 L143.0,105.6 L144.1,109.2 L145.2,112.8 L146.4,116.4 L147.5,120.0 L148.6,123.6 L149.8,127.2 L150.9,130.8 L152.0,134.4 L153.1,137.9 L154.2,141.4 L155.4,144.8 L156.5,148.2 L157.6,151.4 L158.8,154.6 L159.9,157.7 L161.0,160.7 L162.1,163.6 L163.2,166.3 L164.4,169.0 L165.5,171.4 L166.6,173.8 L167.8,176.0 L168.9,178.1 L170.0,180.0 L171.1,181.7 L172.2,183.2 L173.4,184.6 L174.5,185.8 L175.6,186.9 L176.8,187.7 L177.9,188.4 L179.0,188.9 L180.1,189.1 L181.2,189.2 L182.4,189.1 L183.5,188.9 L184.6,188.4 L185.8,187.7 L186.9,186.9 L188.0,185.8 L189.1,184.6 L190.2,183.2 L191.4,181.7 L192.5,180.0 L193.6,178.1 L194.8,176.0 L195.9,173.8 L197.0,171.4 L198.1,169.0 L199.2,166.3 L200.4,163.6 L201.5,160.7 L202.6,157.7 L203.8,154.6 L204.9,151.4 L206.0,148.2 L207.1,144.8 L208.2,141.4 L209.4,137.9 L210.5,134.4 L211.6,130.8 L212.8,127.2 L213.9,123.6 L215.0,120.0 L216.1,116.4 L217.2,112.8 L218.4,109.2 L219.5,105.6 L220.6,102.1 L221.8,98.6 L222.9,95.2 L224.0,91.8 L225.1,88.6 L226.2,85.4 L227.4,82.3 L228.5,79.3 L229.6,76.4 L230.8,73.7 L231.9,71.0 L233.0,68.6 L234.1,66.2 L235.2,64.0 L236.4,61.9 L237.5,60.0 L238.6,58.3 L239.8,56.8 L240.9,55.4 L242.0,54.2 L243.1,53.1 L244.2,52.3 L245.4,51.6 L246.5,51.1 L247.6,50.9 L248.8,50.8 L249.9,50.9 L251.0,51.1 L252.1,51.6 L253.2,52.3 L254.4,53.1 L255.5,54.2 L256.6,55.4 L257.8,56.8 L258.9,58.3 L260.0,60.0 L261.1,61.9 L262.2,64.0 L263.4,66.2 L264.5,68.6 L265.6,71.0 L266.8,73.7 L267.9,76.4 L269.0,79.3 L270.1,82.3 L271.2,85.4 L272.4,88.6 L273.5,91.8 L274.6,95.2 L275.8,98.6 L276.9,102.1 L278.0,105.6 L279.1,109.2 L280.2,112.8 L281.4,116.4 L282.5,120.0 L283.6,123.6 L284.8,127.2 L285.9,130.8 L287.0,134.4 L288.1,137.9 L289.2,141.4 L290.4,144.8 L291.5,148.2 L292.6,151.4 L293.8,154.6 L294.9,157.7 L296.0,160.7 L297.1,163.6 L298.2,166.3 L299.4,169.0 L300.5,171.4 L301.6,173.8 L302.8,176.0 L303.9,178.1 L305.0,180.0 L306.1,181.7 L307.2,183.2 L308.4,184.6 L309.5,185.8 L310.6,186.9 L311.8,187.7 L312.9,188.4 L314.0,188.9 L315.1,189.1 L316.2,189.2 L317.4,189.1 L318.5,188.9 L319.6,188.4 L320.8,187.7 L321.9,186.9 L323.0,185.8 L324.1,184.6 L325.2,183.2 L326.4,181.7 L327.5,180.0 L328.6,178.1 L329.8,176.0 L330.9,173.8 L332.0,171.4 L333.1,169.0 L334.2,166.3 L335.4,163.6 L336.5,160.7 L337.6,157.7 L338.8,154.6 L339.9,151.4 L341.0,148.2 L342.1,144.8 L343.2,141.4 L344.4,137.9 L345.5,134.4 L346.6,130.8 L347.8,127.2 L348.9,123.6 L350.0,120.0 L351.1,116.4 L352.2,112.8 L353.4,109.2 L354.5,105.6 L355.6,102.1 L356.8,98.6 L357.9,95.2 L359.0,91.8 L360.1,88.6 L361.2,85.4 L362.4,82.3 L363.5,79.3 L364.6,76.4 L365.8,73.7 L366.9,71.0 L368.0,68.6 L369.1,66.2 L370.2,64.0 L371.4,61.9 L372.5,60.0 L373.6,58.3 L374.8,56.8 L375.9,55.4 L377.0,54.2 L378.1,53.1 L379.2,52.3 L380.4,51.6 L381.5,51.1 L382.6,50.9 L383.8,50.8 L384.9,50.9 L386.0,51.1 L387.1,51.6 L388.2,52.3 L389.4,53.1 L390.5,54.2 L391.6,55.4 L392.8,56.8 L393.9,58.3 L395.0,60.0 L396.1,61.9 L397.2,64.0 L398.4,66.2 L399.5,68.6 L400.6,71.0 L401.8,73.7 L402.9,76.4 L404.0,79.3 L405.1,82.3 L406.2,85.4 L407.4,88.6 L408.5,91.8 L409.6,95.2 L410.8,98.6 L411.9,102.1 L413.0,105.6 L414.1,109.2 L415.2,112.8 L416.4,116.4 L417.5,120.0 L418.6,123.6 L419.8,127.2 L420.9,130.8 L422.0,134.4 L423.1,137.9 L424.2,141.4 L425.4,144.8 L426.5,148.2 L427.6,151.4 L428.8,154.6 L429.9,157.7 L431.0,160.7 L432.1,163.6 L433.2,166.3 L434.4,169.0 L435.5,171.4 L436.6,173.8 L437.8,176.0 L438.9,178.1 L440.0,180.0 L441.1,181.7 L442.2,183.2 L443.4,184.6 L444.5,185.8 L445.6,186.9 L446.8,187.7 L447.9,188.4 L449.0,188.9 L450.1,189.1 L451.2,189.2 L452.4,189.1 L453.5,188.9 L454.6,188.4 L455.8,187.7 L456.9,186.9 L458.0,185.8 L459.1,184.6 L460.2,183.2 L461.4,181.7 L462.5,180.0 L463.6,178.1 L464.8,176.0 L465.9,173.8 L467.0,171.4 L468.1,169.0 L469.2,166.3 L470.4,163.6 L471.5,160.7 L472.6,157.7 L473.8,154.6 L474.9,151.4 L476.0,148.2 L477.1,144.8 L478.2,141.4 L479.4,137.9 L480.5,134.4 L481.6,130.8 L482.8,127.2 L483.9,123.6 L485.0,120.0 L486.1,116.4 L487.2,112.8 L488.4,109.2 L489.5,105.6 L490.6,102.1 L491.8,98.6 L492.9,95.2 L494.0,91.8 L495.1,88.6 L496.2,85.4 L497.4,82.3 L498.5,79.3 L499.6,76.4 L500.8,73.7 L501.9,71.0 L503.0,68.6 L504.1,66.2 L505.2,64.0 L506.4,61.9 L507.5,60.0 L508.6,58.3 L509.8,56.8 L510.9,55.4 L512.0,54.2 L513.1,53.1 L514.2,52.3 L515.4,51.6 L516.5,51.1 L517.6,50.9 L518.8,50.8 L519.9,50.9 L521.0,51.1 L522.1,51.6 L523.2,52.3 L524.4,53.1 L525.5,54.2 L526.6,55.4 L527.8,56.8 L528.9,58.3 L530.0,60.0" class="c1"/><line x1="113.8" y1="50.8" x2="113.8" y2="36.9" class="thin"/><line x1="248.8" y1="50.8" x2="248.8" y2="36.9" class="thin"/><line x1="113.8" y1="40.4" x2="248.8" y2="40.4" class="thin" marker-end="url(#arm)" marker-start="url(#arm)"/><text x="181.2" y="34.4" text-anchor="middle" class="s b a2">限界周期 P_u = 60 s</text><text x="305.0" y="282.0" text-anchor="middle" class="s m">比例ゲイン K_u = 4.0 で振幅が一定の振動が続く（例題）</text></svg>
