<svg xmlns="http://www.w3.org/2000/svg" viewBox="0 0 600 370" width="600" height="370"><style>
text{font-family:'Hiragino Sans','Hiragino Kaku Gothic ProN','Noto Sans JP','Yu Gothic',Meiryo,sans-serif;font-size:13px;fill:#1f2328}
.s{font-size:11.5px} .m{fill:#5b636d} .b{font-weight:700} .a{fill:#0f6e6a} .a2{fill:#c0612b} .a3{fill:#3b6fb6}
.ln{stroke:#1f2328;stroke-width:1.5;fill:none} .thin{stroke:#5b636d;stroke-width:1;fill:none}
.grid{stroke:#e3e3dc;stroke-width:1} .dash{stroke-dasharray:5 4} .dot{stroke-dasharray:2 3}
.c1{stroke:#0f6e6a;stroke-width:2.5;fill:none} .c2{stroke:#c0612b;stroke-width:2.5;fill:none} .c3{stroke:#3b6fb6;stroke-width:2.5;fill:none}
.eq{stroke:#1f2328;stroke-width:1.5;fill:#fff}
</style><defs>
<marker id="ar" viewBox="0 0 10 10" refX="9" refY="5" markerWidth="7" markerHeight="7" orient="auto-start-reverse"><path d="M0,0 L10,5 L0,10 z" fill="#1f2328"/></marker>
<marker id="ara" viewBox="0 0 10 10" refX="9" refY="5" markerWidth="7" markerHeight="7" orient="auto-start-reverse"><path d="M0,0 L10,5 L0,10 z" fill="#0f6e6a"/></marker>
<marker id="ar2" viewBox="0 0 10 10" refX="9" refY="5" markerWidth="7" markerHeight="7" orient="auto-start-reverse"><path d="M0,0 L10,5 L0,10 z" fill="#c0612b"/></marker>
<marker id="ar3" viewBox="0 0 10 10" refX="9" refY="5" markerWidth="7" markerHeight="7" orient="auto-start-reverse"><path d="M0,0 L10,5 L0,10 z" fill="#3b6fb6"/></marker>
<marker id="arm" viewBox="0 0 10 10" refX="9" refY="5" markerWidth="6" markerHeight="6" orient="auto-start-reverse"><path d="M0,0 L10,5 L0,10 z" fill="#5b636d"/></marker>
</defs><rect width="600" height="370" fill="#fff"/><rect x="120.0" y="30.0" width="240.0" height="230.0" rx="0" fill="#fbe9df" stroke="none" stroke-width="1.5"/><rect x="360.0" y="30.0" width="120.0" height="230.0" rx="0" fill="#e3ecf8" stroke="none" stroke-width="1.5"/><line x1="120.0" y1="260.0" x2="120.0" y2="264.0" class="thin"/><text x="120.0" y="278.0" text-anchor="middle" class="s m">0.0</text><line x1="240.0" y1="260.0" x2="240.0" y2="264.0" class="thin"/><text x="240.0" y="278.0" text-anchor="middle" class="s m">0.1</text><line x1="360.0" y1="260.0" x2="360.0" y2="264.0" class="thin"/><text x="360.0" y="278.0" text-anchor="middle" class="s m">0.2</text><line x1="480.0" y1="260.0" x2="480.0" y2="264.0" class="thin"/><text x="480.0" y="278.0" text-anchor="middle" class="s m">0.3</text><line x1="116.0" y1="260.0" x2="120.0" y2="260.0" class="thin"/><text x="112.0" y="264.0" text-anchor="end" class="s m">0</text><line x1="116.0" y1="214.0" x2="120.0" y2="214.0" class="thin"/><text x="112.0" y="218.0" text-anchor="end" class="s m">200</text><line x1="116.0" y1="168.0" x2="120.0" y2="168.0" class="thin"/><text x="112.0" y="172.0" text-anchor="end" class="s m">400</text><line x1="116.0" y1="122.0" x2="120.0" y2="122.0" class="thin"/><text x="112.0" y="126.0" text-anchor="end" class="s m">600</text><line x1="116.0" y1="76.0" x2="120.0" y2="76.0" class="thin"/><text x="112.0" y="80.0" text-anchor="end" class="s m">800</text><line x1="116.0" y1="30.0" x2="120.0" y2="30.0" class="thin"/><text x="112.0" y="34.0" text-anchor="end" class="s m">1000</text><rect x="120.0" y="30.0" width="360.0" height="230.0" rx="0" fill="none" stroke="#5b636d" stroke-width="1"/><text x="300.0" y="296.0" text-anchor="middle">内面からの距離 [m]</text><text x="76.0" y="145.0" text-anchor="middle" transform="rotate(-90 76.0 145.0)">温度 [°C]</text><path d="M120.0,53.0 L360.0,98.1 L480.0,248.5" class="c1"/><circle cx="120.0" cy="53.0" r="5.0" fill="#0f6e6a" stroke="#fff" stroke-width="1.5"/><circle cx="360.0" cy="98.1" r="5.0" fill="#0f6e6a" stroke="#fff" stroke-width="1.5"/><circle cx="480.0" cy="248.5" r="5.0" fill="#0f6e6a" stroke="#fff" stroke-width="1.5"/><text x="130.0" y="41.0" class="s b">炉内面 900 °C</text><text x="368.0" y="90.1" class="s b">境目 704 °C</text><text x="488.0" y="252.5" class="s b">外面 50 °C</text><text x="240.0" y="163.4" text-anchor="middle" class="s b">耐火れんが</text><text x="240.0" y="179.4" text-anchor="middle" class="s m">k = 1.0</text><text x="420.0" y="42.7" text-anchor="middle" class="s b">断熱</text><text x="420.0" y="58.7" text-anchor="middle" class="s b">れんが</text><text x="420.0" y="74.7" text-anchor="middle" class="s m">k = 0.15</text><line x1="144.0" y1="225.5" x2="456.0" y2="225.5" stroke="#c0612b" stroke-width="2" marker-end="url(#ar2)"/><text x="300.0" y="217.5" text-anchor="middle" class="s b a2">q ≈ 981 W/m²</text><text x="130.0" y="324.0" text-anchor="end" class="s">900 °C</text><line x1="135.0" y1="320.0" x2="175.0" y2="320.0" class="ln"/><rect x="175.0" y="311.0" width="70.0" height="18.0" rx="0" fill="#fbe9df" stroke="#1f2328" stroke-width="1.2"/><text x="210.0" y="324.0" text-anchor="middle" class="s">0.200</text><line x1="245.0" y1="320.0" x2="305.0" y2="320.0" class="ln"/><rect x="305.0" y="311.0" width="120.0" height="18.0" rx="0" fill="#e3ecf8" stroke="#1f2328" stroke-width="1.2"/><text x="365.0" y="324.0" text-anchor="middle" class="s">0.667（3倍以上）</text><line x1="425.0" y1="320.0" x2="465.0" y2="320.0" class="ln"/><text x="470.0" y="324.0" class="s">50 °C</text><text x="300.0" y="352.0" text-anchor="middle" class="s m">1 m² あたりの熱抵抗 [m²K/W] の直列</text></svg>
